<?xml version="1.0" encoding="utf-8" standalone="no"?>
<!DOCTYPE svg PUBLIC "-//W3C//DTD SVG 1.1//EN"
  "http://www.w3.org/Graphics/SVG/1.1/DTD/svg11.dtd">
<svg xmlns:xlink="http://www.w3.org/1999/xlink" width="623.725195pt" height="184.035313pt" viewBox="0 0 623.725195 184.035313" xmlns="http://www.w3.org/2000/svg" version="1.1">
 <metadata>
  <rdf:RDF xmlns:dc="http://purl.org/dc/elements/1.1/" xmlns:cc="http://creativecommons.org/ns#" xmlns:rdf="http://www.w3.org/1999/02/22-rdf-syntax-ns#">
   <cc:Work>
    <dc:type rdf:resource="http://purl.org/dc/dcmitype/StillImage"/>
    <dc:date>2023-10-24T17:41:40.855936</dc:date>
    <dc:format>image/svg+xml</dc:format>
    <dc:creator>
     <cc:Agent>
      <dc:title>Matplotlib v3.8.0, https://matplotlib.org/</dc:title>
     </cc:Agent>
    </dc:creator>
   </cc:Work>
  </rdf:RDF>
 </metadata>
 <defs>
  <style type="text/css">*{stroke-linejoin: round; stroke-linecap: butt}</style>
 </defs>
 <g id="figure_1">
  <g id="patch_1">
   <path d="M 0 184.035313 
L 623.725195 184.035313 
L 623.725195 0 
L 0 0 
L 0 184.035313 
z
" style="fill: none"/>
  </g>
  <g id="axes_1">
   <g id="line2d_1">
    <path d="M 31.05 19.297656 
L 85.05 19.297656 
L 139.05 19.297656 
" clip-path="url(#p002e01a257)" style="fill: none; stroke: #000000; stroke-width: 2; stroke-linecap: round"/>
   </g>
   <g id="line2d_2">
    <path d="M 139.05 19.297656 
L 139.05 73.297656 
L 139.05 127.297656 
" clip-path="url(#p002e01a257)" style="fill: none; stroke: #000000; stroke-width: 2; stroke-linecap: round"/>
   </g>
   <g id="line2d_3">
    <path d="M 139.05 127.297656 
L 139.05 141.697656 
L 130.05 141.697656 
L 148.05 141.697656 
M 132.75 146.017656 
L 145.35 146.017656 
M 137.25 150.337656 
L 140.85 150.337656 
" clip-path="url(#p002e01a257)" style="fill: none; stroke: #000000; stroke-width: 2; stroke-linecap: round"/>
   </g>
   <g id="line2d_4">
    <path d="M 139.05 19.297656 
L 193.05 19.297656 
L 247.05 19.297656 
" clip-path="url(#p002e01a257)" style="fill: none; stroke: #000000; stroke-width: 2; stroke-linecap: round"/>
   </g>
   <g id="line2d_5">
    <path d="M 247.05 19.297656 
L 247.05 73.297656 
L 247.05 127.297656 
" clip-path="url(#p002e01a257)" style="fill: none; stroke: #000000; stroke-width: 2; stroke-linecap: round"/>
   </g>
   <g id="line2d_6">
    <path d="M 247.05 127.297656 
L 247.05 141.697656 
L 238.05 141.697656 
L 256.05 141.697656 
M 240.75 146.017656 
L 253.35 146.017656 
M 245.25 150.337656 
L 248.85 150.337656 
" clip-path="url(#p002e01a257)" style="fill: none; stroke: #000000; stroke-width: 2; stroke-linecap: round"/>
   </g>
   <g id="line2d_7">
    <path d="M 247.05 19.297656 
L 301.05 19.297656 
L 355.05 19.297656 
" clip-path="url(#p002e01a257)" style="fill: none; stroke: #000000; stroke-width: 2; stroke-linecap: round"/>
   </g>
   <g id="line2d_8">
    <path d="M 355.05 19.297656 
L 355.05 73.297656 
L 355.05 127.297656 
" clip-path="url(#p002e01a257)" style="fill: none; stroke: #000000; stroke-width: 2; stroke-linecap: round"/>
   </g>
   <g id="line2d_9">
    <path d="M 355.05 127.297656 
L 355.05 141.697656 
L 346.05 141.697656 
L 364.05 141.697656 
M 348.75 146.017656 
L 361.35 146.017656 
M 353.25 150.337656 
L 356.85 150.337656 
" clip-path="url(#p002e01a257)" style="fill: none; stroke: #000000; stroke-width: 2; stroke-linecap: round"/>
   </g>
   <g id="line2d_10">
    <path d="M 355.05 19.297656 
L 409.05 19.297656 
L 463.05 19.297656 
" clip-path="url(#p002e01a257)" style="fill: none; stroke: #000000; stroke-width: 2; stroke-linecap: round"/>
   </g>
   <g id="line2d_11">
    <path d="M 463.05 19.297656 
L 463.05 73.297656 
L 463.05 127.297656 
" clip-path="url(#p002e01a257)" style="fill: none; stroke: #000000; stroke-width: 2; stroke-linecap: round"/>
   </g>
   <g id="line2d_12">
    <path d="M 463.05 127.297656 
L 463.05 141.697656 
L 454.05 141.697656 
L 472.05 141.697656 
M 456.75 146.017656 
L 469.35 146.017656 
M 461.25 150.337656 
L 464.85 150.337656 
" clip-path="url(#p002e01a257)" style="fill: none; stroke: #000000; stroke-width: 2; stroke-linecap: round"/>
   </g>
   <g id="line2d_13">
    <path d="M 463.05 19.297656 
L 517.05 19.297656 
L 571.05 19.297656 
" clip-path="url(#p002e01a257)" style="fill: none; stroke: #000000; stroke-width: 2; stroke-linecap: round"/>
   </g>
   <g id="line2d_14">
    <path d="M 571.05 19.297656 
L 571.05 73.297656 
L 571.05 127.297656 
" clip-path="url(#p002e01a257)" style="fill: none; stroke: #000000; stroke-width: 2; stroke-linecap: round"/>
   </g>
   <g id="line2d_15">
    <path d="M 571.05 127.297656 
L 571.05 141.697656 
L 562.05 141.697656 
L 580.05 141.697656 
M 564.75 146.017656 
L 577.35 146.017656 
M 569.25 150.337656 
L 572.85 150.337656 
" clip-path="url(#p002e01a257)" style="fill: none; stroke: #000000; stroke-width: 2; stroke-linecap: round"/>
   </g>
   <g id="text_1">
    <!-- 100A -->
    <g transform="translate(68.844922 13.098047) scale(0.125 -0.125)">
     <defs>
      <path id="DejaVuSans-31" d="M 794 531 
L 1825 531 
L 1825 4091 
L 703 3866 
L 703 4441 
L 1819 4666 
L 2450 4666 
L 2450 531 
L 3481 531 
L 3481 0 
L 794 0 
L 794 531 
z
" transform="scale(0.015625)"/>
      <path id="DejaVuSans-30" d="M 2034 4250 
Q 1547 4250 1301 3770 
Q 1056 3291 1056 2328 
Q 1056 1369 1301 889 
Q 1547 409 2034 409 
Q 2525 409 2770 889 
Q 3016 1369 3016 2328 
Q 3016 3291 2770 3770 
Q 2525 4250 2034 4250 
z
M 2034 4750 
Q 2819 4750 3233 4129 
Q 3647 3509 3647 2328 
Q 3647 1150 3233 529 
Q 2819 -91 2034 -91 
Q 1250 -91 836 529 
Q 422 1150 422 2328 
Q 422 3509 836 4129 
Q 1250 4750 2034 4750 
z
" transform="scale(0.015625)"/>
      <path id="DejaVuSans-41" d="M 2188 4044 
L 1331 1722 
L 3047 1722 
L 2188 4044 
z
M 1831 4666 
L 2547 4666 
L 4325 0 
L 3669 0 
L 3244 1197 
L 1141 1197 
L 716 0 
L 50 0 
L 1831 4666 
z
" transform="scale(0.015625)"/>
     </defs>
     <use xlink:href="#DejaVuSans-31"/>
     <use xlink:href="#DejaVuSans-30" x="63.623047"/>
     <use xlink:href="#DejaVuSans-30" x="127.246094"/>
     <use xlink:href="#DejaVuSans-41" x="190.869141"/>
    </g>
   </g>
   <g id="text_2">
    <!-- T374 -->
    <g transform="translate(123.30293 163.435703) scale(0.125 -0.125)">
     <defs>
      <path id="DejaVuSans-54" d="M -19 4666 
L 3928 4666 
L 3928 4134 
L 2272 4134 
L 2272 0 
L 1638 0 
L 1638 4134 
L -19 4134 
L -19 4666 
z
" transform="scale(0.015625)"/>
      <path id="DejaVuSans-33" d="M 2597 2516 
Q 3050 2419 3304 2112 
Q 3559 1806 3559 1356 
Q 3559 666 3084 287 
Q 2609 -91 1734 -91 
Q 1441 -91 1130 -33 
Q 819 25 488 141 
L 488 750 
Q 750 597 1062 519 
Q 1375 441 1716 441 
Q 2309 441 2620 675 
Q 2931 909 2931 1356 
Q 2931 1769 2642 2001 
Q 2353 2234 1838 2234 
L 1294 2234 
L 1294 2753 
L 1863 2753 
Q 2328 2753 2575 2939 
Q 2822 3125 2822 3475 
Q 2822 3834 2567 4026 
Q 2313 4219 1838 4219 
Q 1578 4219 1281 4162 
Q 984 4106 628 3988 
L 628 4550 
Q 988 4650 1302 4700 
Q 1616 4750 1894 4750 
Q 2613 4750 3031 4423 
Q 3450 4097 3450 3541 
Q 3450 3153 3228 2886 
Q 3006 2619 2597 2516 
z
" transform="scale(0.015625)"/>
      <path id="DejaVuSans-37" d="M 525 4666 
L 3525 4666 
L 3525 4397 
L 1831 0 
L 1172 0 
L 2766 4134 
L 525 4134 
L 525 4666 
z
" transform="scale(0.015625)"/>
      <path id="DejaVuSans-34" d="M 2419 4116 
L 825 1625 
L 2419 1625 
L 2419 4116 
z
M 2253 4666 
L 3047 4666 
L 3047 1625 
L 3713 1625 
L 3713 1100 
L 3047 1100 
L 3047 0 
L 2419 0 
L 2419 1100 
L 313 1100 
L 313 1709 
L 2253 4666 
z
" transform="scale(0.015625)"/>
     </defs>
     <use xlink:href="#DejaVuSans-54"/>
     <use xlink:href="#DejaVuSans-33" x="61.083984"/>
     <use xlink:href="#DejaVuSans-37" x="124.707031"/>
     <use xlink:href="#DejaVuSans-34" x="188.330078"/>
    </g>
   </g>
   <g id="text_3">
    <!-- RAT = 7,5Ohms -->
    <g transform="translate(89.974805 177.835703) scale(0.125 -0.125)">
     <defs>
      <path id="DejaVuSans-52" d="M 2841 2188 
Q 3044 2119 3236 1894 
Q 3428 1669 3622 1275 
L 4263 0 
L 3584 0 
L 2988 1197 
Q 2756 1666 2539 1819 
Q 2322 1972 1947 1972 
L 1259 1972 
L 1259 0 
L 628 0 
L 628 4666 
L 2053 4666 
Q 2853 4666 3247 4331 
Q 3641 3997 3641 3322 
Q 3641 2881 3436 2590 
Q 3231 2300 2841 2188 
z
M 1259 4147 
L 1259 2491 
L 2053 2491 
Q 2509 2491 2742 2702 
Q 2975 2913 2975 3322 
Q 2975 3731 2742 3939 
Q 2509 4147 2053 4147 
L 1259 4147 
z
" transform="scale(0.015625)"/>
      <path id="DejaVuSans-20" transform="scale(0.015625)"/>
      <path id="DejaVuSans-3d" d="M 678 2906 
L 4684 2906 
L 4684 2381 
L 678 2381 
L 678 2906 
z
M 678 1631 
L 4684 1631 
L 4684 1100 
L 678 1100 
L 678 1631 
z
" transform="scale(0.015625)"/>
      <path id="DejaVuSans-2c" d="M 750 794 
L 1409 794 
L 1409 256 
L 897 -744 
L 494 -744 
L 750 256 
L 750 794 
z
" transform="scale(0.015625)"/>
      <path id="DejaVuSans-35" d="M 691 4666 
L 3169 4666 
L 3169 4134 
L 1269 4134 
L 1269 2991 
Q 1406 3038 1543 3061 
Q 1681 3084 1819 3084 
Q 2600 3084 3056 2656 
Q 3513 2228 3513 1497 
Q 3513 744 3044 326 
Q 2575 -91 1722 -91 
Q 1428 -91 1123 -41 
Q 819 9 494 109 
L 494 744 
Q 775 591 1075 516 
Q 1375 441 1709 441 
Q 2250 441 2565 725 
Q 2881 1009 2881 1497 
Q 2881 1984 2565 2268 
Q 2250 2553 1709 2553 
Q 1456 2553 1204 2497 
Q 953 2441 691 2322 
L 691 4666 
z
" transform="scale(0.015625)"/>
      <path id="DejaVuSans-4f" d="M 2522 4238 
Q 1834 4238 1429 3725 
Q 1025 3213 1025 2328 
Q 1025 1447 1429 934 
Q 1834 422 2522 422 
Q 3209 422 3611 934 
Q 4013 1447 4013 2328 
Q 4013 3213 3611 3725 
Q 3209 4238 2522 4238 
z
M 2522 4750 
Q 3503 4750 4090 4092 
Q 4678 3434 4678 2328 
Q 4678 1225 4090 567 
Q 3503 -91 2522 -91 
Q 1538 -91 948 565 
Q 359 1222 359 2328 
Q 359 3434 948 4092 
Q 1538 4750 2522 4750 
z
" transform="scale(0.015625)"/>
      <path id="DejaVuSans-68" d="M 3513 2113 
L 3513 0 
L 2938 0 
L 2938 2094 
Q 2938 2591 2744 2837 
Q 2550 3084 2163 3084 
Q 1697 3084 1428 2787 
Q 1159 2491 1159 1978 
L 1159 0 
L 581 0 
L 581 4863 
L 1159 4863 
L 1159 2956 
Q 1366 3272 1645 3428 
Q 1925 3584 2291 3584 
Q 2894 3584 3203 3211 
Q 3513 2838 3513 2113 
z
" transform="scale(0.015625)"/>
      <path id="DejaVuSans-6d" d="M 3328 2828 
Q 3544 3216 3844 3400 
Q 4144 3584 4550 3584 
Q 5097 3584 5394 3201 
Q 5691 2819 5691 2113 
L 5691 0 
L 5113 0 
L 5113 2094 
Q 5113 2597 4934 2840 
Q 4756 3084 4391 3084 
Q 3944 3084 3684 2787 
Q 3425 2491 3425 1978 
L 3425 0 
L 2847 0 
L 2847 2094 
Q 2847 2600 2669 2842 
Q 2491 3084 2119 3084 
Q 1678 3084 1418 2786 
Q 1159 2488 1159 1978 
L 1159 0 
L 581 0 
L 581 3500 
L 1159 3500 
L 1159 2956 
Q 1356 3278 1631 3431 
Q 1906 3584 2284 3584 
Q 2666 3584 2933 3390 
Q 3200 3197 3328 2828 
z
" transform="scale(0.015625)"/>
      <path id="DejaVuSans-73" d="M 2834 3397 
L 2834 2853 
Q 2591 2978 2328 3040 
Q 2066 3103 1784 3103 
Q 1356 3103 1142 2972 
Q 928 2841 928 2578 
Q 928 2378 1081 2264 
Q 1234 2150 1697 2047 
L 1894 2003 
Q 2506 1872 2764 1633 
Q 3022 1394 3022 966 
Q 3022 478 2636 193 
Q 2250 -91 1575 -91 
Q 1294 -91 989 -36 
Q 684 19 347 128 
L 347 722 
Q 666 556 975 473 
Q 1284 391 1588 391 
Q 1994 391 2212 530 
Q 2431 669 2431 922 
Q 2431 1156 2273 1281 
Q 2116 1406 1581 1522 
L 1381 1569 
Q 847 1681 609 1914 
Q 372 2147 372 2553 
Q 372 3047 722 3315 
Q 1072 3584 1716 3584 
Q 2034 3584 2315 3537 
Q 2597 3491 2834 3397 
z
" transform="scale(0.015625)"/>
     </defs>
     <use xlink:href="#DejaVuSans-52"/>
     <use xlink:href="#DejaVuSans-41" x="65.482422"/>
     <use xlink:href="#DejaVuSans-54" x="126.140625"/>
     <use xlink:href="#DejaVuSans-20" x="187.224609"/>
     <use xlink:href="#DejaVuSans-3d" x="219.011719"/>
     <use xlink:href="#DejaVuSans-20" x="302.800781"/>
     <use xlink:href="#DejaVuSans-37" x="334.587891"/>
     <use xlink:href="#DejaVuSans-2c" x="398.210938"/>
     <use xlink:href="#DejaVuSans-35" x="429.998047"/>
     <use xlink:href="#DejaVuSans-4f" x="493.621094"/>
     <use xlink:href="#DejaVuSans-68" x="572.332031"/>
     <use xlink:href="#DejaVuSans-6d" x="635.710938"/>
     <use xlink:href="#DejaVuSans-73" x="733.123047"/>
    </g>
   </g>
   <g id="text_4">
    <!-- 100A -->
    <g transform="translate(176.844922 13.098047) scale(0.125 -0.125)">
     <use xlink:href="#DejaVuSans-31"/>
     <use xlink:href="#DejaVuSans-30" x="63.623047"/>
     <use xlink:href="#DejaVuSans-30" x="127.246094"/>
     <use xlink:href="#DejaVuSans-41" x="190.869141"/>
    </g>
   </g>
   <g id="text_5">
    <!-- T374 -->
    <g transform="translate(231.30293 163.435703) scale(0.125 -0.125)">
     <use xlink:href="#DejaVuSans-54"/>
     <use xlink:href="#DejaVuSans-33" x="61.083984"/>
     <use xlink:href="#DejaVuSans-37" x="124.707031"/>
     <use xlink:href="#DejaVuSans-34" x="188.330078"/>
    </g>
   </g>
   <g id="text_6">
    <!-- RAT = 7,5Ohms -->
    <g transform="translate(197.974805 177.835703) scale(0.125 -0.125)">
     <use xlink:href="#DejaVuSans-52"/>
     <use xlink:href="#DejaVuSans-41" x="65.482422"/>
     <use xlink:href="#DejaVuSans-54" x="126.140625"/>
     <use xlink:href="#DejaVuSans-20" x="187.224609"/>
     <use xlink:href="#DejaVuSans-3d" x="219.011719"/>
     <use xlink:href="#DejaVuSans-20" x="302.800781"/>
     <use xlink:href="#DejaVuSans-37" x="334.587891"/>
     <use xlink:href="#DejaVuSans-2c" x="398.210938"/>
     <use xlink:href="#DejaVuSans-35" x="429.998047"/>
     <use xlink:href="#DejaVuSans-4f" x="493.621094"/>
     <use xlink:href="#DejaVuSans-68" x="572.332031"/>
     <use xlink:href="#DejaVuSans-6d" x="635.710938"/>
     <use xlink:href="#DejaVuSans-73" x="733.123047"/>
    </g>
   </g>
   <g id="text_7">
    <!-- 100A -->
    <g transform="translate(284.844922 13.098047) scale(0.125 -0.125)">
     <use xlink:href="#DejaVuSans-31"/>
     <use xlink:href="#DejaVuSans-30" x="63.623047"/>
     <use xlink:href="#DejaVuSans-30" x="127.246094"/>
     <use xlink:href="#DejaVuSans-41" x="190.869141"/>
    </g>
   </g>
   <g id="text_8">
    <!-- T374 -->
    <g transform="translate(339.30293 163.435703) scale(0.125 -0.125)">
     <use xlink:href="#DejaVuSans-54"/>
     <use xlink:href="#DejaVuSans-33" x="61.083984"/>
     <use xlink:href="#DejaVuSans-37" x="124.707031"/>
     <use xlink:href="#DejaVuSans-34" x="188.330078"/>
    </g>
   </g>
   <g id="text_9">
    <!-- RAT = 7,5Ohms -->
    <g transform="translate(305.974805 177.835703) scale(0.125 -0.125)">
     <use xlink:href="#DejaVuSans-52"/>
     <use xlink:href="#DejaVuSans-41" x="65.482422"/>
     <use xlink:href="#DejaVuSans-54" x="126.140625"/>
     <use xlink:href="#DejaVuSans-20" x="187.224609"/>
     <use xlink:href="#DejaVuSans-3d" x="219.011719"/>
     <use xlink:href="#DejaVuSans-20" x="302.800781"/>
     <use xlink:href="#DejaVuSans-37" x="334.587891"/>
     <use xlink:href="#DejaVuSans-2c" x="398.210938"/>
     <use xlink:href="#DejaVuSans-35" x="429.998047"/>
     <use xlink:href="#DejaVuSans-4f" x="493.621094"/>
     <use xlink:href="#DejaVuSans-68" x="572.332031"/>
     <use xlink:href="#DejaVuSans-6d" x="635.710938"/>
     <use xlink:href="#DejaVuSans-73" x="733.123047"/>
    </g>
   </g>
   <g id="text_10">
    <!-- 100A -->
    <g transform="translate(392.844922 13.098047) scale(0.125 -0.125)">
     <use xlink:href="#DejaVuSans-31"/>
     <use xlink:href="#DejaVuSans-30" x="63.623047"/>
     <use xlink:href="#DejaVuSans-30" x="127.246094"/>
     <use xlink:href="#DejaVuSans-41" x="190.869141"/>
    </g>
   </g>
   <g id="text_11">
    <!-- T374 -->
    <g transform="translate(447.30293 163.435703) scale(0.125 -0.125)">
     <use xlink:href="#DejaVuSans-54"/>
     <use xlink:href="#DejaVuSans-33" x="61.083984"/>
     <use xlink:href="#DejaVuSans-37" x="124.707031"/>
     <use xlink:href="#DejaVuSans-34" x="188.330078"/>
    </g>
   </g>
   <g id="text_12">
    <!-- RAT = 7,5Ohms -->
    <g transform="translate(413.974805 177.835703) scale(0.125 -0.125)">
     <use xlink:href="#DejaVuSans-52"/>
     <use xlink:href="#DejaVuSans-41" x="65.482422"/>
     <use xlink:href="#DejaVuSans-54" x="126.140625"/>
     <use xlink:href="#DejaVuSans-20" x="187.224609"/>
     <use xlink:href="#DejaVuSans-3d" x="219.011719"/>
     <use xlink:href="#DejaVuSans-20" x="302.800781"/>
     <use xlink:href="#DejaVuSans-37" x="334.587891"/>
     <use xlink:href="#DejaVuSans-2c" x="398.210938"/>
     <use xlink:href="#DejaVuSans-35" x="429.998047"/>
     <use xlink:href="#DejaVuSans-4f" x="493.621094"/>
     <use xlink:href="#DejaVuSans-68" x="572.332031"/>
     <use xlink:href="#DejaVuSans-6d" x="635.710938"/>
     <use xlink:href="#DejaVuSans-73" x="733.123047"/>
    </g>
   </g>
   <g id="text_13">
    <!-- 100A -->
    <g transform="translate(500.844922 13.098047) scale(0.125 -0.125)">
     <use xlink:href="#DejaVuSans-31"/>
     <use xlink:href="#DejaVuSans-30" x="63.623047"/>
     <use xlink:href="#DejaVuSans-30" x="127.246094"/>
     <use xlink:href="#DejaVuSans-41" x="190.869141"/>
    </g>
   </g>
   <g id="text_14">
    <!-- T374 -->
    <g transform="translate(555.30293 163.435703) scale(0.125 -0.125)">
     <use xlink:href="#DejaVuSans-54"/>
     <use xlink:href="#DejaVuSans-33" x="61.083984"/>
     <use xlink:href="#DejaVuSans-37" x="124.707031"/>
     <use xlink:href="#DejaVuSans-34" x="188.330078"/>
    </g>
   </g>
   <g id="text_15">
    <!-- RAT = 7,5Ohms -->
    <g transform="translate(521.974805 177.835703) scale(0.125 -0.125)">
     <use xlink:href="#DejaVuSans-52"/>
     <use xlink:href="#DejaVuSans-41" x="65.482422"/>
     <use xlink:href="#DejaVuSans-54" x="126.140625"/>
     <use xlink:href="#DejaVuSans-20" x="187.224609"/>
     <use xlink:href="#DejaVuSans-3d" x="219.011719"/>
     <use xlink:href="#DejaVuSans-20" x="302.800781"/>
     <use xlink:href="#DejaVuSans-37" x="334.587891"/>
     <use xlink:href="#DejaVuSans-2c" x="398.210938"/>
     <use xlink:href="#DejaVuSans-35" x="429.998047"/>
     <use xlink:href="#DejaVuSans-4f" x="493.621094"/>
     <use xlink:href="#DejaVuSans-68" x="572.332031"/>
     <use xlink:href="#DejaVuSans-6d" x="635.710938"/>
     <use xlink:href="#DejaVuSans-73" x="733.123047"/>
    </g>
   </g>
   <g id="patch_2">
    <path d="M 139.05 21.997656 
C 139.766048 21.997656 140.452866 21.713167 140.959188 21.206845 
C 141.465511 20.700522 141.75 20.013705 141.75 19.297656 
C 141.75 18.581608 141.465511 17.894791 140.959188 17.388468 
C 140.452866 16.882145 139.766048 16.597656 139.05 16.597656 
C 138.333952 16.597656 137.647134 16.882145 137.140812 17.388468 
C 136.634489 17.894791 136.35 18.581608 136.35 19.297656 
C 136.35 20.013705 136.634489 20.700522 137.140812 21.206845 
C 137.647134 21.713167 138.333952 21.997656 139.05 21.997656 
z
" clip-path="url(#p002e01a257)" style="stroke: #000000; stroke-width: 2; stroke-linejoin: miter"/>
   </g>
   <g id="patch_3">
    <path d="M 247.05 21.997656 
C 247.766048 21.997656 248.452866 21.713167 248.959188 21.206845 
C 249.465511 20.700522 249.75 20.013705 249.75 19.297656 
C 249.75 18.581608 249.465511 17.894791 248.959188 17.388468 
C 248.452866 16.882145 247.766048 16.597656 247.05 16.597656 
C 246.333952 16.597656 245.647134 16.882145 245.140812 17.388468 
C 244.634489 17.894791 244.35 18.581608 244.35 19.297656 
C 244.35 20.013705 244.634489 20.700522 245.140812 21.206845 
C 245.647134 21.713167 246.333952 21.997656 247.05 21.997656 
z
" clip-path="url(#p002e01a257)" style="stroke: #000000; stroke-width: 2; stroke-linejoin: miter"/>
   </g>
   <g id="patch_4">
    <path d="M 355.05 21.997656 
C 355.766048 21.997656 356.452866 21.713167 356.959188 21.206845 
C 357.465511 20.700522 357.75 20.013705 357.75 19.297656 
C 357.75 18.581608 357.465511 17.894791 356.959188 17.388468 
C 356.452866 16.882145 355.766048 16.597656 355.05 16.597656 
C 354.333952 16.597656 353.647134 16.882145 353.140812 17.388468 
C 352.634489 17.894791 352.35 18.581608 352.35 19.297656 
C 352.35 20.013705 352.634489 20.700522 353.140812 21.206845 
C 353.647134 21.713167 354.333952 21.997656 355.05 21.997656 
z
" clip-path="url(#p002e01a257)" style="stroke: #000000; stroke-width: 2; stroke-linejoin: miter"/>
   </g>
   <g id="patch_5">
    <path d="M 463.05 21.997656 
C 463.766048 21.997656 464.452866 21.713167 464.959188 21.206845 
C 465.465511 20.700522 465.75 20.013705 465.75 19.297656 
C 465.75 18.581608 465.465511 17.894791 464.959188 17.388468 
C 464.452866 16.882145 463.766048 16.597656 463.05 16.597656 
C 462.333952 16.597656 461.647134 16.882145 461.140812 17.388468 
C 460.634489 17.894791 460.35 18.581608 460.35 19.297656 
C 460.35 20.013705 460.634489 20.700522 461.140812 21.206845 
C 461.647134 21.713167 462.333952 21.997656 463.05 21.997656 
z
" clip-path="url(#p002e01a257)" style="stroke: #000000; stroke-width: 2; stroke-linejoin: miter"/>
   </g>
   <g id="patch_6">
    <path d="M 571.05 21.997656 
C 571.766048 21.997656 572.452866 21.713167 572.959188 21.206845 
C 573.465511 20.700522 573.75 20.013705 573.75 19.297656 
C 573.75 18.581608 573.465511 17.894791 572.959188 17.388468 
C 572.452866 16.882145 571.766048 16.597656 571.05 16.597656 
C 570.333952 16.597656 569.647134 16.882145 569.140812 17.388468 
C 568.634489 17.894791 568.35 18.581608 568.35 19.297656 
C 568.35 20.013705 568.634489 20.700522 569.140812 21.206845 
C 569.647134 21.713167 570.333952 21.997656 571.05 21.997656 
z
" clip-path="url(#p002e01a257)" style="stroke: #000000; stroke-width: 2; stroke-linejoin: miter"/>
   </g>
  </g>
 </g>
 <defs>
  <clipPath id="p002e01a257">
   <rect x="3.6" y="9.910656" width="603.9" height="147.114"/>
  </clipPath>
 </defs>
</svg>
